HIERARCHY
ROOT hip
{
  OFFSET 0 0 0
  CHANNELS 6 Xposition Yposition Zposition Zrotation Yrotation Xrotation
  JOINT abdomen
  {
    OFFSET 0 20.6881 -0.73152
    CHANNELS 3 Zrotation Xrotation Yrotation
    JOINT chest
    {
      OFFSET 0 11.7043 -0.48768
      CHANNELS 3 Zrotation Xrotation Yrotation
      JOINT neck
      {
        OFFSET 0 22.1894 -2.19456
        CHANNELS 3 Zrotation Xrotation Yrotation
        JOINT head
        {
          OFFSET -0.24384 7.07133 1.2192
          CHANNELS 3 Zrotation Xrotation Yrotation
          JOINT leftEye
          {
            OFFSET 4.14528 8.04674 8.04672
            CHANNELS 3 Zrotation Xrotation Yrotation
            End Site
            {
              OFFSET 1 0 0
            }
          }
          JOINT rightEye
          {
            OFFSET -3.6576 8.04674 8.04672
            CHANNELS 3 Zrotation Xrotation Yrotation
            End Site
            {
              OFFSET 1 0 0
            }
          }
        }
      }
      JOINT rCollar
      {
        OFFSET -2.68224 19.2634 -4.8768
        CHANNELS 3 Zrotation Xrotation Yrotation
        JOINT rShldr
        {
          OFFSET -8.77824 -1.95073 1.46304
          CHANNELS 3 Zrotation Xrotation Yrotation
          JOINT rForeArm
          {
            OFFSET -28.1742 -1.7115 0.48768
            CHANNELS 3 Zrotation Xrotation Yrotation
            JOINT rHand
            {
              OFFSET -22.5879 0.773209 7.07136
              CHANNELS 3 Zrotation Xrotation Yrotation
              JOINT rThumb1
              {
                OFFSET -1.2192 -0.487915 3.41376
                CHANNELS 3 Zrotation Xrotation Yrotation
                JOINT rThumb2
                {
                  OFFSET -3.37035 -0.52449 3.41376
                  CHANNELS 3 Zrotation Xrotation Yrotation
                  End Site
                  {
                    OFFSET -1.78271 -1.18214 1.43049
                  }
                }
              }
              JOINT rIndex1
              {
                OFFSET -7.75947 0.938293 5.60832
                CHANNELS 3 Zrotation Xrotation Yrotation
                JOINT rIndex2
                {
                  OFFSET -2.54057 -0.884171 1.56538
                  CHANNELS 3 Zrotation Xrotation Yrotation
                  End Site
                  {
                    OFFSET -1.62519 -0.234802 1.16502
                  }
                }
              }
              JOINT rMid1
              {
                OFFSET -8.24714 1.18213 3.41376
                CHANNELS 3 Zrotation Xrotation Yrotation
                JOINT rMid2
                {
                  OFFSET -3.10165 -0.590103 1.0647
                  CHANNELS 3 Zrotation Xrotation Yrotation
                  End Site
                  {
                    OFFSET -2.48547 -0.328903 0.83742
                  }
                }
              }
              JOINT rRing1
              {
                OFFSET -8.82822 0.546677 1.51678
                CHANNELS 3 Zrotation Xrotation Yrotation
                JOINT rRing2
                {
                  OFFSET -2.60934 -0.819778 -0.0198488
                  CHANNELS 3 Zrotation Xrotation Yrotation
                  End Site
                  {
                    OFFSET -2.33842 -0.294052 0.168128
                  }
                }
              }
              JOINT rPinky1
              {
                OFFSET -8.27202 -0.0477905 -0.4584
                CHANNELS 3 Zrotation Xrotation Yrotation
                JOINT rPinky2
                {
                  OFFSET -1.82734 -0.647385 -0.700984
                  CHANNELS 3 Zrotation Xrotation Yrotation
                  End Site
                  {
                    OFFSET -1.69225 -0.51767 -0.607171
                  }
                }
              }
            }
          }
        }
      }
      JOINT lCollar
      {
        OFFSET 2.68224 19.2634 -4.8768
        CHANNELS 3 Zrotation Xrotation Yrotation
        JOINT lShldr
        {
          OFFSET 8.77824 -1.95073 1.46304
          CHANNELS 3 Zrotation Xrotation Yrotation
          JOINT lForeArm
          {
            OFFSET 28.1742 -1.7115 0.48768
            CHANNELS 3 Zrotation Xrotation Yrotation
            JOINT lHand
            {
              OFFSET 22.5879 0.773209 7.07136
              CHANNELS 3 Zrotation Xrotation Yrotation
              JOINT lThumb1
              {
                OFFSET 1.2192 -0.487915 3.41376
                CHANNELS 3 Zrotation Xrotation Yrotation
                JOINT lThumb2
                {
                  OFFSET 3.37035 -0.52449 3.41376
                  CHANNELS 3 Zrotation Xrotation Yrotation
                  End Site
                  {
                    OFFSET 1.78271 -1.18214 1.43049
                  }
                }
              }
              JOINT lIndex1
              {
                OFFSET 7.75947 0.938293 5.60832
                CHANNELS 3 Zrotation Xrotation Yrotation
                JOINT lIndex2
                {
                  OFFSET 2.54057 -0.884171 1.56538
                  CHANNELS 3 Zrotation Xrotation Yrotation
                  End Site
                  {
                    OFFSET 1.62519 -0.234802 1.16502
                  }
                }
              }
              JOINT lMid1
              {
                OFFSET 8.24714 1.18213 3.41376
                CHANNELS 3 Zrotation Xrotation Yrotation
                JOINT lMid2
                {
                  OFFSET 3.10165 -0.590103 1.0647
                  CHANNELS 3 Zrotation Xrotation Yrotation
                  End Site
                  {
                    OFFSET 2.48547 -0.328903 0.83742
                  }
                }
              }
              JOINT lRing1
              {
                OFFSET 8.82822 0.546677 1.51678
                CHANNELS 3 Zrotation Xrotation Yrotation
                JOINT lRing2
                {
                  OFFSET 2.60934 -0.819778 -0.0198488
                  CHANNELS 3 Zrotation Xrotation Yrotation
                  End Site
                  {
                    OFFSET 2.33842 -0.294052 0.168128
                  }
                }
              }
              JOINT lPinky1
              {
                OFFSET 8.27202 -0.0477905 -0.4584
                CHANNELS 3 Zrotation Xrotation Yrotation
                JOINT lPinky2
                {
                  OFFSET 1.82734 -0.647385 -0.700984
                  CHANNELS 3 Zrotation Xrotation Yrotation
                  End Site
                  {
                    OFFSET 1.69225 -0.51767 -0.607171
                  }
                }
              }
            }
          }
        }
      }
    }
  }
  JOINT rButtock
  {
    OFFSET -8.77824 4.35084 1.2192
    CHANNELS 3 Zrotation Xrotation Yrotation
    JOINT rThigh
    {
      OFFSET 0 -1.70687 -2.19456
      CHANNELS 3 Zrotation Xrotation Yrotation
      JOINT rShin
      {
        OFFSET 0 -36.8199 0.73152
        CHANNELS 3 Zrotation Xrotation Yrotation
        JOINT rFoot
        {
          OFFSET 0.73152 -45.1104 -5.12064
          CHANNELS 3 Zrotation Xrotation Yrotation
          End Site
          {
            OFFSET -1.1221 -3.69964 12.103
          }
        }
      }
    }
  }
  JOINT lButtock
  {
    OFFSET 8.77824 4.35084 1.2192
    CHANNELS 3 Zrotation Xrotation Yrotation
    JOINT lThigh
    {
      OFFSET 0 -1.70687 -2.19456
      CHANNELS 3 Zrotation Xrotation Yrotation
      JOINT lShin
      {
        OFFSET 0 -36.8199 0.73152
        CHANNELS 3 Zrotation Xrotation Yrotation
        JOINT lFoot
        {
          OFFSET -0.73152 -45.1104 -5.12064
          CHANNELS 3 Zrotation Xrotation Yrotation
          End Site
          {
            OFFSET 1.1221 -3.69964 12.103
          }
        }
      }
    }
  }
}
MOTION
Frames:	7
Frame Time:	0.00833333
49.3293 83.166 -184.869 -9.8668 -51.2677 21.3887 1.66684 10.1571 -3.93681 7.51782 -3.16844 -0.925233 -12.9418 3.59345 3.90756 12.1504 -0.585288 10.1027 -0.0 0.0 0.0 -0.0 0.0 0.0 1.62946e-13 -4.91993e-14 -4.35866e-13 68.756 12.2719 0.507577 -19.1921 -12.0284 36.7526 -0.44928 -18.7053 -2.72744 3.33494e-11 1.31358e-09 -1.76569e-09 8.49885e-11 2.28528e-09 -3.05971e-09 3.33586e-11 1.31358e-09 -1.7657e-09 7.73091 5.47488 0.417314 3.33523e-11 1.31357e-09 -1.76569e-09 2.90554 0.965183 0.102902 3.3361e-11 1.31358e-09 -1.76569e-09 10.2786 0.731801 0.0259123 3.3344e-11 1.31358e-09 -1.76568e-09 2.22167 -0.733487 -0.20892 1.62833e-13 -4.91998e-14 -4.36152e-13 -80.5894 -1.41938 -8.88441 13.2747 -6.38453 -24.1044 0.0259173 4.58819 -0.646227 2.76636e-09 -1.49546e-09 -7.25386e-10 4.78401e-09 -2.60418e-09 -1.26795e-09 2.76636e-09 -1.49546e-09 -7.25369e-10 -7.73091 5.47488 -0.417314 2.76636e-09 -1.49546e-09 -7.25389e-10 -2.90554 0.965183 -0.102902 2.76636e-09 -1.49545e-09 -7.25386e-10 -10.2786 0.731801 -0.0259123 2.76637e-09 -1.49545e-09 -7.25396e-10 -2.22167 -0.733487 0.20892 -2.03217e-16 0.0 -3.88251e-19 -3.40248 -19.897 7.04463 -0.511279 47.8224 0.987263 -0.696418 9.97508 3.13063 2.03217e-16 0.0 3.88251e-19 0.0274544 -39.0162 -3.08518 0.544458 48.7201 -1.01211 2.17479 -15.9863 5.15379
48.9834 83.1403 -183.859 -9.8406 -51.8595 21.2144 1.2231 10.2537 -3.50074 7.27021 -3.1051 -0.823797 -12.6604 3.59496 3.8505 12.3576 -0.697004 9.95236 -0.0 0.0 0.0 -0.0 0.0 0.0 6.20206e-14 -9.12171e-14 -1.00173e-13 69.2014 11.6864 0.30604 -19.2419 -12.0873 36.8697 -0.452373 -18.7666 -2.73706 1.15525e-09 1.17391e-09 -9.48246e-10 2.0145e-09 2.03019e-09 -1.62668e-09 1.15525e-09 1.17391e-09 -9.48255e-10 7.73091 5.47488 0.417314 1.15525e-09 1.17391e-09 -9.48247e-10 2.90554 0.965183 0.102902 1.15526e-09 1.17391e-09 -9.48246e-10 10.2786 0.731801 0.0259123 1.15524e-09 1.17391e-09 -9.48242e-10 2.22167 -0.733487 -0.20892 6.18283e-14 -9.12186e-14 -1.00443e-13 -80.1186 -1.25074 -9.24229 13.1509 -6.28969 -23.8599 0.0280539 4.77308 -0.672388 6.47716e-10 -5.23968e-10 -1.50016e-09 1.11466e-09 -9.08626e-10 -2.59384e-09 6.47717e-10 -5.23974e-10 -1.50014e-09 -7.73091 5.47488 -0.417314 6.47717e-10 -5.23966e-10 -1.50016e-09 -2.90554 0.965183 -0.102902 6.47715e-10 -5.23966e-10 -1.50016e-09 -10.2786 0.731801 -0.0259123 6.47729e-10 -5.23964e-10 -1.50017e-09 -2.22167 -0.733487 0.20892 -2.03217e-16 0.0 -3.88251e-19 -3.87984 -20.5732 7.31378 -0.544864 48.7762 1.00394 -0.827826 12.4482 3.28474 2.03217e-16 0.0 3.88251e-19 -0.691427 -38.4173 -3.66167 0.542105 48.6355 -1.00326 2.01692 -16.5861 4.66351
48.7223 83.1126 -182.975 -9.7264 -52.0862 21.1315 0.704579 10.3418 -3.16602 7.10371 -3.08287 -0.748822 -12.3605 3.53441 3.80595 12.4645 -0.714748 9.82163 -0.0 0.0 0.0 -0.0 0.0 0.0 -3.96403e-14 -1.35175e-13 1.7821e-13 69.608 11.2114 0.122853 -19.2889 -12.1428 36.9803 -0.454025 -18.7991 -2.74217 1.92782e-09 8.60435e-10 -1.95744e-10 3.33891e-09 1.47666e-09 -3.1129e-10 1.92783e-09 8.60436e-10 -1.9575e-10 7.73091 5.47488 0.417314 1.92782e-09 8.60432e-10 -1.95744e-10 2.90554 0.965183 0.102902 1.92783e-09 8.60432e-10 -1.95743e-10 10.2786 0.731801 0.0259123 1.92782e-09 8.60435e-10 -1.95741e-10 2.22167 -0.733487 -0.20892 -3.98762e-14 -1.35174e-13 1.77962e-13 -79.7003 -1.10849 -9.51078 13.0902 -6.24325 -23.7409 0.0304155 4.97201 -0.700548 -7.29517e-10 7.78307e-10 -1.60271e-09 -1.26874e-09 1.35491e-09 -2.76208e-09 -7.29515e-10 7.78299e-10 -1.60269e-09 -7.73091 5.47488 -0.417314 -7.29515e-10 7.78308e-10 -1.60271e-09 -2.90554 0.965183 -0.102902 -7.29518e-10 7.78307e-10 -1.60271e-09 -10.2786 0.731801 -0.0259123 -7.29503e-10 7.78309e-10 -1.60272e-09 -2.22167 -0.733487 0.20892 -2.03217e-16 0.0 -3.88251e-19 -4.36926 -21.3706 7.54056 -0.584107 49.8515 1.02782 -0.953053 14.7019 3.39651 2.03217e-16 0.0 3.88251e-19 -1.41113 -37.8677 -4.08135 0.539307 48.5377 -0.993876 1.8691 -17.0416 4.24091
48.5144 83.0707 -182.093 -9.3084 -52.2876 20.8913 0.0561993 10.4126 -2.97243 7.0641 -3.12765 -0.71028 -12.0396 3.39117 3.7803 12.4362 -0.587063 9.72 -0.0 0.0 0.0 -0.0 0.0 0.0 -1.52591e-13 -2.01163e-13 3.81286e-13 69.9587 10.887 -0.0486234 -19.3336 -12.1961 37.0858 -0.453347 -18.7857 -2.74006 2.18054e-09 2.62907e-10 4.75103e-10 3.76223e-09 4.35036e-10 8.54893e-10 2.18055e-09 2.62908e-10 4.75099e-10 7.73091 5.47488 0.417314 2.18054e-09 2.62905e-10 4.75104e-10 2.90554 0.965183 0.102902 2.18055e-09 2.62905e-10 4.75105e-10 10.2786 0.731801 0.0259123 2.18054e-09 2.62908e-10 4.75106e-10 2.22167 -0.733487 -0.20892 -1.52818e-13 -2.01153e-13 3.81073e-13 -79.389 -1.02069 -9.61196 13.1348 -6.27724 -23.8285 0.0334854 5.22453 -0.73631 -9.10059e-10 2.68742e-09 -5.86641e-10 -1.57646e-09 4.66119e-09 -1.00371e-09 -9.10057e-10 2.68742e-09 -5.86628e-10 -7.73091 5.47488 -0.417314 -9.10056e-10 2.68742e-09 -5.86639e-10 -2.90554 0.965183 -0.102902 -9.10059e-10 2.68742e-09 -5.86645e-10 -10.2786 0.731801 -0.0259123 -9.10044e-10 2.68742e-09 -5.86657e-10 -2.22167 -0.733487 0.20892 -2.03217e-16 0.0 -3.88251e-19 -4.90543 -22.3324 7.71914 -0.630181 51.0778 1.06217 -1.08982 16.8542 3.58114 2.03217e-16 0.0 3.88251e-19 -2.16895 -37.3847 -4.30512 0.535698 48.4155 -0.983551 1.76278 -17.2621 3.97039
48.296 83.0283 -181.216 -8.8989 -52.6268 20.6509 -0.693843 10.4841 -2.8126 7.0592 -3.21621 -0.680645 -11.6467 3.17623 3.74832 12.3168 -0.357072 9.59212 -0.0 0.0 0.0 -0.0 0.0 0.0 -2.82151e-13 -2.71751e-13 5.72376e-13 70.3376 10.587 -0.235032 -19.3778 -12.2489 37.19 -0.451122 -18.7417 -2.73315 2.12352e-09 -6.00215e-10 1.2229e-09 3.64658e-09 -1.06512e-09 2.14988e-09 2.12352e-09 -6.00213e-10 1.2229e-09 7.73091 5.47488 0.417314 2.12352e-09 -6.00215e-10 1.2229e-09 2.90554 0.965183 0.102902 2.12352e-09 -6.00216e-10 1.2229e-09 10.2786 0.731801 0.0259123 2.12351e-09 -6.00213e-10 1.22291e-09 2.22167 -0.733487 -0.20892 -2.82339e-13 -2.71727e-13 5.72208e-13 -79.0866 -0.894505 -9.63191 13.2514 -6.36653 -24.0587 0.0372612 5.5143 -0.777392 -5.39387e-10 5.12671e-09 1.17584e-09 -9.26929e-10 8.88167e-09 2.04164e-09 -5.39386e-10 5.12671e-09 1.17585e-09 -7.73091 5.47488 -0.417314 -5.39385e-10 5.12671e-09 1.17585e-09 -2.90554 0.965183 -0.102902 -5.39388e-10 5.12671e-09 1.17584e-09 -10.2786 0.731801 -0.0259123 -5.39373e-10 5.12671e-09 1.17583e-09 -2.22167 -0.733487 0.20892 -2.03217e-16 0.0 -3.88251e-19 -5.46493 -23.4352 7.88116 -0.684565 52.45 1.1071 -1.23611 18.9316 3.78941 2.03217e-16 0.0 3.88251e-19 -2.94728 -36.9404 -4.35445 0.531322 48.2645 -0.971464 1.70291 -17.2754 3.8507
48.0583 82.9936 -180.343 -8.5476 -52.9095 20.3722 -1.4409 10.5635 -2.6779 7.05564 -3.30769 -0.658097 -11.2259 2.92776 3.71469 12.1546 -0.107787 9.4582 -0.0 0.0 0.0 -0.0 0.0 0.0 -4.00583e-13 -3.14806e-13 7.44481e-13 70.7249 10.3162 -0.402513 -19.4187 -12.2978 37.2867 -0.448738 -18.6943 -2.72572 1.98285e-09 -1.49473e-09 1.96631e-09 3.38633e-09 -2.61925e-09 3.43617e-09 1.98286e-09 -1.49472e-09 1.96631e-09 7.73091 5.47488 0.417314 1.98285e-09 -1.49472e-09 1.96631e-09 2.90554 0.965183 0.102902 1.98286e-09 -1.49472e-09 1.96631e-09 10.2786 0.731801 0.0259123 1.98285e-09 -1.49472e-09 1.96631e-09 2.22167 -0.733487 -0.20892 -4.00724e-13 -3.14771e-13 7.44356e-13 -78.7467 -0.735998 -9.68137 13.3711 -6.45832 -24.2964 0.0408167 5.76461 -0.812924 -1.57774e-10 7.53255e-09 2.9595e-09 -2.58239e-10 1.30446e-08 5.12357e-09 -1.57776e-10 7.53255e-09 2.95951e-09 -7.73091 5.47488 -0.417314 -1.57774e-10 7.53254e-09 2.95951e-09 -2.90554 0.965183 -0.102902 -1.57777e-10 7.53254e-09 2.95951e-09 -10.2786 0.731801 -0.0259123 -1.57762e-10 7.53254e-09 2.95949e-09 -2.22167 -0.733487 0.20892 -2.03217e-16 0.0 -3.88251e-19 -5.98901 -24.6003 8.01892 -0.747889 53.905 1.15923 -1.32513 20.6506 3.78784 2.03217e-16 0.0 3.88251e-19 -3.69999 -36.5212 -4.31645 0.527046 48.1131 -0.959202 1.63159 -17.2651 3.69681
47.9227 82.9383 -179.546 -7.872 -52.8494 20.0741 -2.08042 10.6579 -2.55966 7.02001 -3.36125 -0.640815 -10.8215 2.68395 3.68405 11.9969 0.0776049 9.33826 -0.0 0.0 0.0 -0.0 0.0 0.0 -4.80152e-13 -2.98196e-13 8.90605e-13 71.1013 10.0796 -0.517321 -19.4536 -12.3397 37.3695 -0.44756 -18.6708 -2.72204 1.98466e-09 -2.18642e-09 2.62397e-09 3.37586e-09 -3.82282e-09 4.57631e-09 1.98467e-09 -2.18642e-09 2.62397e-09 7.73091 5.47488 0.417314 1.98466e-09 -2.18642e-09 2.62398e-09 2.90554 0.965183 0.102902 1.98467e-09 -2.18642e-09 2.62398e-09 10.2786 0.731801 0.0259123 1.98465e-09 -2.18642e-09 2.62398e-09 2.22167 -0.733487 -0.20892 -4.80258e-13 -2.98159e-13 8.90506e-13 -78.3218 -0.55143 -9.87109 13.4263 -6.50072 -24.4068 0.0428657 5.89872 -0.831982 -3.05496e-10 9.3413e-09 4.0391e-09 -5.08462e-10 1.61781e-08 6.99165e-09 -3.05498e-10 9.3413e-09 4.03911e-09 -7.73091 5.47488 -0.417314 -3.05495e-10 9.34129e-09 4.03911e-09 -2.90554 0.965183 -0.102902 -3.05499e-10 9.34129e-09 4.03911e-09 -10.2786 0.731801 -0.0259123 -3.05484e-10 9.34129e-09 4.03909e-09 -2.22167 -0.733487 0.20892 -2.03217e-16 0.0 -3.88251e-19 -6.42075 -25.7488 8.12312 -0.81993 55.3797 1.21445 -1.26557 21.7284 3.33197 2.03217e-16 0.0 3.88251e-19 -4.37737 -36.1128 -4.27602 0.52368 47.9895 -0.948302 1.48797 -17.414 3.32279
